<?xml version="1.0" standalone="no"?>
<!DOCTYPE svg PUBLIC "-//W3C//DTD SVG 20010904//EN"
 "http://www.w3.org/TR/2001/REC-SVG-20010904/DTD/svg10.dtd">
<svg version="1.0" xmlns="http://www.w3.org/2000/svg"
 width="602.000000pt" height="602.000000pt" viewBox="0 0 602.000000 602.000000"
 preserveAspectRatio="xMidYMid meet">
<metadata>
Created by potrace 1.14, written by Peter Selinger 2001-2017
</metadata>
<g transform="translate(0.000000,602.000000) scale(0.100000,-0.100000)"
fill="#000000" stroke="none">
<path d="M3922 5425 c-17 -14 -33 -38 -37 -54 -8 -37 16 -96 46 -112 22 -11
21 -12 -23 -24 -90 -23 -154 -86 -178 -176 -22 -82 11 -227 91 -398 l50 -108
-25 -38 c-54 -78 -65 -205 -26 -288 27 -57 95 -121 158 -148 42 -18 136 -46
215 -63 22 -5 44 -31 103 -121 41 -63 106 -170 146 -237 39 -68 109 -179 154
-247 46 -69 82 -126 80 -128 -4 -5 -736 -4 -1301 0 l-490 4 -77 83 c-43 46
-103 119 -134 162 -56 77 -228 359 -222 363 2 1 48 10 102 19 113 20 348 102
416 146 59 38 126 105 156 156 34 57 46 163 27 228 -36 122 -240 270 -473 344
-190 60 -369 82 -677 82 -112 0 -184 4 -188 10 -9 14 -104 74 -140 88 -123 47
-256 5 -342 -110 -31 -41 -53 -57 -120 -88 -45 -21 -98 -50 -117 -65 -80 -61
-132 -199 -120 -321 l6 -61 -117 -184 c-64 -101 -172 -265 -238 -364 -66 -99
-190 -290 -275 -425 -85 -135 -185 -284 -222 -332 -78 -99 -91 -121 -114 -200
-23 -82 -20 -156 9 -235 33 -87 69 -143 167 -256 44 -50 105 -130 135 -177
171 -265 282 -380 613 -635 63 -49 162 -137 220 -195 88 -87 120 -128 190
-245 191 -315 366 -476 548 -505 108 -18 595 -16 847 4 222 16 417 36 555 56
168 24 529 32 937 21 224 -7 458 -16 518 -21 61 -6 196 -10 301 -10 168 -1
198 2 246 20 151 56 236 186 226 349 -8 126 -75 228 -190 288 l-53 27 -335 11
c-790 24 -1342 9 -1783 -50 -99 -14 -251 -29 -337 -35 -85 -6 -227 -18 -315
-26 -88 -7 -227 -14 -308 -14 l-147 0 -38 41 c-38 43 -135 184 -187 274 -82
142 -263 321 -515 511 -207 156 -327 263 -415 373 -36 44 -109 123 -162 175
-96 94 -98 96 -83 120 235 387 343 560 430 691 58 88 155 240 214 337 59 98
111 180 115 183 5 2 35 0 67 -5 32 -4 102 -11 155 -15 l95 -7 49 -66 c80 -109
127 -179 220 -327 143 -227 154 -244 256 -376 100 -130 277 -312 350 -361 23
-15 58 -33 78 -39 20 -6 153 -15 296 -19 317 -10 1716 -11 2095 -1 273 7 275
7 327 34 63 32 115 83 145 140 19 34 23 58 23 132 0 114 -17 157 -135 325
-142 206 -460 691 -460 704 0 2 62 6 138 9 75 3 151 10 167 17 17 6 73 16 125
21 121 13 275 44 345 70 179 67 303 227 252 326 -55 105 -267 197 -640 277
-89 19 -216 42 -282 52 -129 18 -382 22 -547 10 l-96 -8 -83 124 c-93 140
-223 277 -290 308 l-44 20 310 0 c307 0 312 0 518 -35 271 -45 421 -84 513
-135 80 -44 101 -48 111 -24 8 23 -10 37 -122 92 -98 48 -238 98 -400 142 -44
12 -105 31 -135 42 -307 110 -400 128 -671 128 -197 0 -198 0 -227 -25z
m-1743 -736 c220 -12 312 -27 460 -75 151 -49 316 -156 341 -221 15 -37 -8
-95 -59 -144 -40 -38 -68 -53 -174 -92 -70 -26 -168 -54 -219 -62 -51 -9 -101
-20 -110 -25 -20 -11 -762 5 -891 20 -123 15 -187 41 -251 104 -63 61 -93 116
-110 200 -14 68 -6 129 22 159 26 29 102 64 184 86 95 26 234 42 433 50 88 3
167 7 175 8 8 1 98 -3 199 -8z m2951 -89 c160 -26 425 -91 515 -125 80 -30
175 -76 175 -85 0 -13 -47 -50 -95 -74 -70 -34 -249 -65 -430 -73 -147 -6
-150 -7 -178 -34 l-28 -28 -232 5 c-504 10 -728 38 -834 104 -38 23 -43 60
-17 116 24 50 107 120 170 143 74 28 237 60 364 71 162 14 445 4 590 -20z"/>
<path d="M1884 4550 c-74 -15 -139 -55 -159 -97 -16 -33 -17 -45 -7 -92 7 -35
22 -65 39 -84 65 -69 209 -137 290 -137 20 0 62 4 92 9 31 6 89 15 129 21 120
17 208 78 232 160 18 64 -43 163 -120 194 -74 29 -393 46 -496 26z"/>
<path d="M4670 4594 c-67 -13 -113 -39 -146 -82 -41 -54 -44 -98 -11 -157 53
-94 154 -127 392 -129 187 -1 214 7 246 77 43 96 15 149 -115 218 -49 25 -112
51 -140 57 -61 14 -191 22 -226 16z"/>
<path d="M2555 5425 c-5 -2 -80 -6 -165 -8 -345 -12 -756 -105 -960 -218 -82
-46 -240 -167 -240 -184 0 -20 1 -20 79 20 38 19 91 39 117 46 27 6 88 24 135
40 119 40 307 79 378 79 32 0 103 4 157 10 155 15 371 19 458 8 57 -7 86 -6
107 2 71 30 83 128 22 182 -19 18 -69 31 -88 23z"/>
</g>
</svg>
